# xmcd CD database file
#
# Track frame offsets:
#	150
#	9988
#	33579
#	50994
#	61465
#	69178
#	84763
#	107797
#	122895
#	128457
#	152899
#	169476
#
# Disc length: 2631 seconds
#
# Revision: 0
# Processed by: cddbd v1.5PL3 Copyright (c) Steve Scherf et al.
# Submitted via: CDex 1.51
#
DISCID=9d0a450c
DTITLE=S.E.N.S. - Asunaro Hakusho (Asunaro White Paper)
DYEAR=1993
DGENRE=New Age
TTITLE0=Prologue
TTITLE1=Requiem - The Passing Of The Morning
TTITLE2=Tomorrow's Wind
TTITLE3=Like The Wind - Guitar Version
TTITLE4=Closed Door Of 110
TTITLE5=Fake
TTITLE6=Like The Wind - Main Theme
TTITLE7=Jesus, Joy Of Man's Desiring - Harp Version
TTITLE8=Thought
TTITLE9=True Love - Instrumental Version
TTITLE10=Stairs Of Time
TTITLE11=Reminiscence
EXTD=YEAR: 1993
EXTT0=
EXTT1=
EXTT2=
EXTT3=
EXTT4=
EXTT5=
EXTT6=
EXTT7=
EXTT8=
EXTT9=
EXTT10=
EXTT11=
PLAYORDER=
